<?xml version="1.0" encoding="utf-8"?>
<!-- Generator: Adobe Illustrator 28.0.0, SVG Export Plug-In . SVG Version: 6.00 Build 0)  -->
<svg version="1.1" id="Layer_1" xmlns="http://www.w3.org/2000/svg" xmlns:xlink="http://www.w3.org/1999/xlink" x="0px" y="0px"
	 viewBox="0 0 300 300" style="enable-background:new 0 0 300 300;" xml:space="preserve">
<style type="text/css">
	.st0{fill:#FFFFFF;}
	.st1{fill:#E6E6E6;}
	.st2{font-family:'Poppins-Medium';}
	.st3{font-size:165px;}
</style>
<g>
	<circle class="st0" cx="150" cy="150" r="128"/>
	<path class="st1" d="M150,31c31.8,0,61.7,12.4,84.1,34.9S269,118.2,269,150s-12.4,61.7-34.9,84.1S181.8,269,150,269
		s-61.7-12.4-84.1-34.9S31,181.8,31,150s12.4-61.7,34.9-84.1S118.2,31,150,31 M150,13C74.3,13,13,74.3,13,150s61.3,137,137,137
		s137-61.3,137-137S225.7,13,150,13L150,13z"/>
</g>
<text transform="matrix(1 0 0 1 90.353 160.9858)" class="st2 st3">...</text>
</svg>
